<?xml version="1.0" encoding="UTF-8" standalone="no"?>
<!-- Created with Inkscape (http://www.inkscape.org/) -->

<svg
   version="1.1"
   id="svg2"
   xml:space="preserve"
   width="1726.3867"
   height="933.33331"
   viewBox="0 0 1726.3867 933.33331"
   sodipodi:docname="FutuRaM_Baseline_BLACK-EPS.eps"
   xmlns:inkscape="http://www.inkscape.org/namespaces/inkscape"
   xmlns:sodipodi="http://sodipodi.sourceforge.net/DTD/sodipodi-0.dtd"
   xmlns="http://www.w3.org/2000/svg"
   xmlns:svg="http://www.w3.org/2000/svg"><defs
     id="defs6" /><sodipodi:namedview
     id="namedview4"
     pagecolor="#ffffff"
     bordercolor="#666666"
     borderopacity="1.0"
     inkscape:pageshadow="2"
     inkscape:pageopacity="0.0"
     inkscape:pagecheckerboard="0" /><g
     id="g8"
     inkscape:groupmode="layer"
     inkscape:label="ink_ext_XXXXXX"
     transform="matrix(1.3333333,0,0,-1.3333333,0,933.33333)"><g
       id="g10"
       transform="scale(0.1)"><path
         d="M 55.5273,1762.66 H 205.141 v 50.27 H 55.5273 v 119.79 H 249.555 v 50.25 H 0 v -409.05 h 55.5273 v 188.74"
         style="fill:#040606;fill-opacity:1;fill-rule:nonzero;stroke:none"
         id="path12" /><path
         d="m 558.117,1860.25 h -52.605 v -211.52 c -5.383,-9.17 -11.938,-17.08 -21.043,-22.21 -13.797,-7.79 -28.824,-11.68 -44.961,-11.68 -23.567,0 -40.586,7.96 -51.012,23.94 -10.422,15.98 -15.625,39.16 -15.625,69.55 v 151.92 h -52.605 v -166.54 c 0,-28.63 4.172,-52.2 12.402,-70.71 8.285,-18.5 20.355,-32.27 36.125,-41.33 15.781,-9.06 34.84,-13.6 57.27,-13.6 22.179,0 40.148,4.34 53.89,13.03 9.582,6.02 17.746,15.07 25.289,25.5 l 6.125,-32.68 h 46.75 v 286.33"
         style="fill:#040606;fill-opacity:1;fill-rule:nonzero;stroke:none"
         id="path14" /><path
         d="m 704.75,1636.45 c 0,-11.49 2.477,-22.46 7.492,-32.88 4.953,-10.42 12.899,-18.92 23.762,-25.55 10.922,-6.62 25.465,-9.95 43.574,-9.95 h 47.344 l 4.07,42.08 h -13.453 c -18.902,0 -32.551,1.07 -41.031,3.23 -8.492,2.13 -13.801,7.29 -15.934,15.47 -2.133,8.2 -3.23,21.42 -3.23,39.73 v 150.79 h 75.379 v 40.88 h -75.379 v 75.97 l -52.594,-5.26 v -70.71 h -44.414 l -4.664,-40.88 h 49.078 v -182.92"
         style="fill:#040606;fill-opacity:1;fill-rule:nonzero;stroke:none"
         id="path16" /><path
         d="m 1111.19,1606.59 6.12,-32.67 h 46.8 v 286.33 h -52.6 v -211.5 c -5.4,-9.18 -11.95,-17.1 -21.04,-22.23 -13.85,-7.79 -28.84,-11.68 -45.01,-11.68 -23.57,0 -40.59,7.96 -50.964,23.94 -10.418,15.98 -15.633,39.16 -15.633,69.55 v 151.92 h -52.597 v -166.54 c 0,-28.63 4.117,-52.2 12.402,-70.71 8.285,-18.5 20.297,-32.27 36.078,-41.33 15.781,-9.06 34.884,-13.6 57.264,-13.6 22.23,0 40.2,4.34 53.9,13.03 9.57,6.02 17.75,15.06 25.28,25.49"
         style="fill:#040606;fill-opacity:1;fill-rule:nonzero;stroke:none"
         id="path18" /><path
         d="m 1342.91,1776.11 c 5.25,8 14.23,15.34 26.99,22.07 12.75,6.72 26.75,10.07 41.93,10.07 3.52,0 6.7,-0.15 9.53,-0.43 2.77,-0.3 5.46,-0.74 7.99,-1.31 l 5.26,57.84 c -4.07,1.16 -8.54,1.76 -13.4,1.76 -15.23,0 -29.48,-4.34 -42.83,-13 -13.35,-8.66 -27.33,-22.06 -41.93,-40.18 l -6.4,47.32 h -43.27 v -286.33 h 56.13 v 202.19"
         style="fill:#040606;fill-opacity:1;fill-rule:nonzero;stroke:none"
         id="path20" /><path
         d="m 1582.94,1801.97 c 12.55,11.59 30.51,17.4 53.89,17.4 15.97,0 29.12,-2.69 39.45,-8.05 10.31,-5.36 18.01,-13 23.07,-22.92 5.06,-9.95 7.58,-21.64 7.58,-35.08 h -150.74 c 5.26,20.83 14.14,37.06 26.75,48.65 z m 158.49,-170.19 c -12.86,-5.85 -26.51,-10.14 -40.89,-12.84 -14.44,-2.76 -28.29,-4.1 -41.54,-4.1 -18.11,0 -34.84,3.01 -50.22,9.06 -15.38,6.02 -28.18,16.44 -38.3,31.25 -10.13,14.8 -16.43,35.44 -18.96,61.94 h 207.42 c 1,5.05 1.64,9.97 1.88,14.76 0.3,4.76 0.45,9.2 0.45,13.3 0,25.71 -5.31,47.57 -15.92,65.58 -10.62,18.04 -25.21,31.75 -43.82,41.2 -18.61,9.46 -39.8,14.18 -63.51,14.18 -29.63,0 -54.89,-6.68 -75.83,-20.02 -20.95,-13.34 -36.92,-31.12 -47.94,-53.32 -11.01,-22.21 -16.52,-46.65 -16.52,-73.34 0,-27.45 5.9,-52.64 17.71,-75.53 11.76,-22.89 29.14,-41.25 52.15,-55.07 22.98,-13.84 51.32,-20.76 85.01,-20.76 20.84,0 39.25,2.51 55.23,7.47 15.98,4.96 29.48,9.87 40.59,14.74 l -6.99,41.5"
         style="fill:#040606;fill-opacity:1;fill-rule:nonzero;stroke:none"
         id="path22" /><path
         d="m 2092.91,1688.76 c 7.99,8.95 20.59,15.68 37.81,20.16 17.27,4.47 39.8,7.2 67.64,8.17 v -68.36 c -8.39,-11.68 -19.11,-21.04 -32.25,-28.06 -13.16,-6.99 -26.75,-10.52 -40.79,-10.52 -13.06,0 -23.73,3.47 -31.97,10.37 -8.28,6.93 -12.44,18.06 -12.44,33.47 0,14.22 4.01,25.81 12,34.77 z m 22.48,-120.69 c 18.51,0 35.08,3.92 49.67,11.72 14.59,7.76 27.29,17.91 37.96,30.36 3.92,-8.96 8.29,-16.55 13.15,-22.78 4.87,-6.25 11.96,-11.01 21.19,-14.32 9.28,-3.32 22.38,-4.98 39.3,-4.98 h 4.13 l 8.18,42.08 h -5.26 c -10.17,0 -17.51,2.2 -22.09,6.58 -4.56,4.39 -7.48,11.01 -8.78,19.87 -1.23,8.86 -1.89,20.09 -1.89,33.74 v 58.43 c 0,34.49 -3.41,61.76 -10.22,81.83 -6.8,20.05 -17.61,34.31 -32.45,42.81 -14.78,8.45 -34.23,12.7 -58.4,12.7 -18.91,0 -36.93,-2.78 -54.04,-8.34 -17.17,-5.54 -31.46,-12.71 -42.98,-21.46 l 7.6,-42.65 c 15.18,10.49 28.88,17.42 41.03,20.73 12.21,3.31 23.62,4.98 34.35,4.98 20.24,0 35.72,-4.2 46.44,-12.59 10.73,-8.36 16.08,-26.2 16.08,-53.46 -14.59,-0.18 -29.82,-1.33 -45.71,-3.36 -15.87,-2.03 -31.21,-5.36 -46.05,-9.92 -14.78,-4.59 -28.18,-10.72 -40.14,-18.42 -12.01,-7.69 -21.53,-17.33 -28.63,-28.92 -7.15,-11.59 -10.67,-25.49 -10.67,-41.63 0,-15.98 3.62,-30.21 10.96,-42.65 7.3,-12.49 17.57,-22.31 30.82,-29.53 13.25,-7.2 28.73,-10.82 46.45,-10.82"
         style="fill:#040606;fill-opacity:1;fill-rule:nonzero;stroke:none"
         id="path24" /><path
         d="m 2508.1,1573.92 108.69,286.33 h -59.01 l -79.5,-228.47 -80.04,228.47 h -58.45 l 109.27,-286.33 h 59.04"
         style="fill:#040606;fill-opacity:1;fill-rule:nonzero;stroke:none"
         id="path26" /><path
         d="m 2749.72,1688.76 c 7.99,8.95 20.6,15.68 37.82,20.16 17.27,4.47 39.8,7.2 67.64,8.17 v -68.36 c -8.39,-11.68 -19.11,-21.04 -32.26,-28.06 -13.15,-6.99 -26.75,-10.52 -40.79,-10.52 -13.06,0 -23.73,3.47 -31.96,10.37 -8.28,6.93 -12.46,18.06 -12.46,33.47 0,14.22 4.03,25.81 12.01,34.77 z m -23.96,-109.87 c 13.25,-7.2 28.73,-10.82 46.44,-10.82 18.51,0 35.08,3.92 49.67,11.72 14.59,7.76 27.3,17.91 37.96,30.36 3.93,-8.96 8.3,-16.55 13.16,-22.78 4.86,-6.25 11.96,-11.01 21.19,-14.32 9.28,-3.32 22.37,-4.98 39.3,-4.98 h 4.11 l 8.2,42.08 h -5.26 c -10.18,0 -17.53,2.2 -22.09,6.58 -4.56,4.39 -7.49,11.01 -8.78,19.87 -1.25,8.86 -1.89,20.09 -1.89,33.74 v 58.43 c 0,34.49 -3.42,61.76 -10.22,81.83 -6.8,20.05 -17.62,34.31 -32.45,42.81 -14.79,8.45 -34.24,12.7 -58.41,12.7 -18.9,0 -36.92,-2.78 -54.04,-8.34 -17.17,-5.54 -31.46,-12.71 -42.97,-21.46 l 7.59,-42.65 c 15.18,10.49 28.88,17.42 41.04,20.73 12.21,3.31 23.62,4.98 34.34,4.98 20.25,0 35.73,-4.2 46.45,-12.59 10.71,-8.36 16.08,-26.2 16.08,-53.46 -14.59,-0.18 -29.83,-1.33 -45.71,-3.36 -15.88,-2.03 -31.22,-5.36 -46.05,-9.92 -14.79,-4.59 -28.18,-10.72 -40.15,-18.42 -12.01,-7.69 -21.53,-17.33 -28.63,-28.92 -7.15,-11.59 -10.67,-25.49 -10.67,-41.63 0,-15.98 3.62,-30.21 10.97,-42.65 7.29,-12.49 17.56,-22.31 30.82,-29.53"
         style="fill:#040606;fill-opacity:1;fill-rule:nonzero;stroke:none"
         id="path28" /><path
         d="m 3136.85,1971.81 h -52.56 v -58.43 h 52.56 v 58.43"
         style="fill:#040606;fill-opacity:1;fill-rule:nonzero;stroke:none"
         id="path30" /><path
         d="m 3090.09,1860.25 h -52.56 v -286.33 h 52.56 v 286.33"
         style="fill:#040606;fill-opacity:1;fill-rule:nonzero;stroke:none"
         id="path32" /><path
         d="m 3242.48,1578.17 c 10.82,-6.73 25.46,-10.1 43.97,-10.1 h 16.92 l 7.59,42.08 c -13.4,0 -23.42,1.37 -29.92,4.09 -6.55,2.73 -10.87,8.19 -13,16.38 -2.13,8.16 -3.22,20.45 -3.22,36.8 v 344.78 h -52.61 v -375.15 c 0,-11.51 2.34,-22.51 7.05,-33.03 4.66,-10.52 12.4,-19.13 23.22,-25.85"
         style="fill:#040606;fill-opacity:1;fill-rule:nonzero;stroke:none"
         id="path34" /><path
         d="m 3446.29,1688.76 c 7.99,8.95 20.59,15.68 37.81,20.16 17.27,4.47 39.79,7.2 67.63,8.17 v -68.36 c -8.39,-11.68 -19.1,-21.04 -32.25,-28.06 -13.16,-6.99 -26.75,-10.52 -40.79,-10.52 -13.05,0 -23.72,3.47 -31.95,10.37 -8.29,6.93 -12.46,18.06 -12.46,33.47 0,14.22 4.02,25.81 12.01,34.77 z m 22.48,-120.69 c 18.51,0 35.08,3.92 49.67,11.72 14.59,7.76 27.29,17.91 37.96,30.36 3.92,-8.96 8.28,-16.55 13.15,-22.78 4.86,-6.25 11.96,-11.01 21.18,-14.32 9.29,-3.32 22.39,-4.98 39.31,-4.98 h 4.12 l 8.19,42.08 h -5.27 c -10.16,0 -17.51,2.2 -22.07,6.58 -4.57,4.39 -7.5,11.01 -8.79,19.87 -1.24,8.86 -1.88,20.09 -1.88,33.74 v 58.43 c 0,34.49 -3.43,61.76 -10.23,81.83 -6.79,20.05 -17.61,34.31 -32.45,42.81 -14.79,8.45 -34.24,12.7 -58.41,12.7 -18.9,0 -36.91,-2.78 -54.04,-8.34 -17.17,-5.54 -31.46,-12.71 -42.97,-21.46 l 7.59,-42.65 c 15.19,10.49 28.88,17.42 41.04,20.73 12.21,3.31 23.62,4.98 34.34,4.98 20.24,0 35.73,-4.2 46.44,-12.59 10.73,-8.36 16.08,-26.2 16.08,-53.46 -14.59,-0.18 -29.82,-1.33 -45.7,-3.36 -15.88,-2.03 -31.21,-5.36 -46.05,-9.92 -14.79,-4.59 -28.19,-10.72 -40.14,-18.42 -12.01,-7.69 -21.54,-17.33 -28.63,-28.92 -7.15,-11.59 -10.67,-25.49 -10.67,-41.63 0,-15.98 3.62,-30.21 10.97,-42.65 7.29,-12.49 17.56,-22.31 30.8,-29.53 13.25,-7.2 28.74,-10.82 46.46,-10.82"
         style="fill:#040606;fill-opacity:1;fill-rule:nonzero;stroke:none"
         id="path36" /><path
         d="m 3940.33,1665.82 c -6.59,-15.5 -16.07,-27.86 -28.33,-37.12 -12.26,-9.25 -26.8,-13.86 -43.52,-13.86 -15.04,0 -28.98,3.55 -41.93,10.64 -12.96,7.12 -23.42,18.17 -31.41,33.18 -7.99,14.99 -12.01,34.48 -12.01,58.43 0,22.97 4.02,42.03 12.01,57.12 7.99,15.1 18.45,26.39 31.41,33.89 12.95,7.51 26.89,11.27 41.93,11.27 16.72,0 31.26,-4.5 43.52,-13.46 12.26,-8.95 21.74,-21.13 28.33,-36.52 6.61,-15.38 9.93,-32.82 9.93,-52.3 0,-18.69 -3.32,-35.78 -9.93,-51.27 z m 3.53,179.39 c -19.3,13.92 -42.28,20.9 -68.97,20.9 -20.65,0 -40.05,-5.01 -58.17,-15.04 -12.44,-6.9 -22.17,-15.65 -30.67,-25.26 v 186.39 h -52.59 v -438.28 h 46.75 l 6.06,36.95 c 7.59,-11.49 17.01,-21.5 30.3,-28.34 18.81,-9.63 38.27,-14.46 58.32,-14.46 24.16,0 45.94,6.62 65.44,19.87 19.46,13.25 34.99,31.12 46.45,53.62 11.52,22.5 17.27,47.66 17.27,75.53 0,26.1 -5.21,50.49 -15.63,73.19 -10.42,22.71 -25.31,41.01 -44.56,54.93"
         style="fill:#040606;fill-opacity:1;fill-rule:nonzero;stroke:none"
         id="path38" /><path
         d="m 4156.55,1913.38 h 52.6 v 58.43 h -52.6 v -58.43"
         style="fill:#040606;fill-opacity:1;fill-rule:nonzero;stroke:none"
         id="path40" /><path
         d="m 4109.8,1573.92 h 52.6 v 286.33 h -52.6 v -286.33"
         style="fill:#040606;fill-opacity:1;fill-rule:nonzero;stroke:none"
         id="path42" /><path
         d="m 4340.35,1630.62 c -2.14,8.16 -3.23,20.45 -3.23,36.8 v 344.78 h -52.59 v -375.15 c 0,-11.51 2.32,-22.51 7.03,-33.03 4.68,-10.52 12.41,-19.13 23.23,-25.85 10.82,-6.73 25.46,-10.1 43.97,-10.1 h 16.92 l 7.59,42.08 c -13.39,0 -23.42,1.37 -29.92,4.09 -6.56,2.73 -10.87,8.19 -13,16.38"
         style="fill:#040606;fill-opacity:1;fill-rule:nonzero;stroke:none"
         id="path44" /><path
         d="m 4521.19,1913.38 h 52.59 v 58.43 h -52.59 v -58.43"
         style="fill:#040606;fill-opacity:1;fill-rule:nonzero;stroke:none"
         id="path46" /><path
         d="m 4474.43,1573.92 h 52.6 v 286.33 h -52.6 v -286.33"
         style="fill:#040606;fill-opacity:1;fill-rule:nonzero;stroke:none"
         id="path48" /><path
         d="m 4726.31,1936.22 -52.59,-5.26 v -70.71 h -44.41 l -4.67,-40.88 h 49.08 v -182.92 c 0,-11.49 2.48,-22.46 7.44,-32.88 4.97,-10.42 12.9,-18.92 23.82,-25.55 10.92,-6.62 25.41,-9.95 43.52,-9.95 h 47.35 l 4.11,42.08 h -13.44 c -18.91,0 -32.61,1.07 -41.1,3.23 -8.44,2.13 -13.74,7.29 -15.88,15.47 -2.18,8.2 -3.23,21.42 -3.23,39.73 v 150.79 h 75.38 v 40.88 h -75.38 v 75.97"
         style="fill:#040606;fill-opacity:1;fill-rule:nonzero;stroke:none"
         id="path50" /><path
         d="m 5095.01,1860.25 -80.63,-212.68 -89.41,212.68 h -58.42 l 119.2,-273.47 -66.05,-154.28 h 58.46 l 175.32,427.75 h -58.47"
         style="fill:#040606;fill-opacity:1;fill-rule:nonzero;stroke:none"
         id="path52" /><path
         d="m 207.477,868.48 c -15.231,-18.011 -37.016,-27.019 -65.454,-27.019 -28.285,0 -50.0152,9.008 -65.3042,27.019 -15.3321,18.02 -22.9766,43.102 -22.9766,75.231 0,32.16 7.6445,57.219 22.9766,75.249 15.289,18.02 37.0192,27.02 65.3042,27.02 28.438,0 50.223,-9 65.454,-27.02 15.187,-18.03 22.777,-43.089 22.777,-75.249 0,-32.129 -7.59,-57.211 -22.777,-75.231 z m 59.746,0 c 11.164,22.512 16.769,47.559 16.769,75.231 0,27.66 -5.605,52.758 -16.769,75.249 -11.219,22.49 -27.438,40.43 -48.676,53.74 -21.234,13.35 -46.746,20.03 -76.524,20.03 -30.015,0 -55.5738,-6.68 -76.7183,-20.03 C 44.168,1059.39 27.9883,1041.45 16.8242,1018.96 5.61328,996.469 0,971.371 0,943.711 0,916.039 5.61328,890.992 16.8242,868.48 c 11.1641,-22.5 27.3438,-40.41 48.4805,-53.769 21.1445,-13.34 46.7033,-20.012 76.7183,-20.012 29.778,0 55.29,6.672 76.524,20.012 21.238,13.359 37.457,31.269 48.676,53.769"
         style="fill:#040606;fill-opacity:1;fill-rule:nonzero;stroke:none"
         id="path54" /><path
         d="m 459.313,1151.16 c 0,14.61 3.23,25.09 9.625,31.42 6.46,6.32 15.289,9.49 26.601,9.49 5.856,0 11.016,-0.44 15.484,-1.31 4.469,-0.86 9.086,-2.18 13.743,-3.95 l 8.195,44.41 c -6.055,2.34 -12.758,4.2 -20.047,5.57 -7.301,1.33 -15.84,2.03 -25.559,2.03 -26.5,0 -46.554,-7.64 -60.195,-22.92 -13.648,-15.32 -20.445,-35.71 -20.445,-61.22 v -67.81 h -42.668 l -7.004,-40.89 h 49.672 V 800.551 h 52.598 v 245.429 h 77.121 v 40.89 h -77.121 v 64.29"
         style="fill:#040606;fill-opacity:1;fill-rule:nonzero;stroke:none"
         id="path56" /><path
         d="m 974.711,941.969 c -8.742,6.23 -17.773,11.191 -27,14.89 -9.285,3.704 -17.422,6.532 -24.414,8.493 -22.43,6.8 -39.106,13.05 -50.117,18.679 -11.016,5.66 -16.528,15.211 -16.528,28.639 0,13.44 5.157,23.24 15.532,29.37 10.324,6.13 23.621,9.21 39.996,9.21 16.183,0 29.824,-2.44 40.894,-7.33 11.114,-4.86 20.836,-10.79 29.227,-17.81 l 6.449,47.91 c -8.789,4.49 -19.16,8.74 -31.113,12.73 -12.012,3.97 -27.543,5.98 -46.602,5.98 -26.097,0 -47.035,-4.09 -62.82,-12.28 -15.781,-8.17 -27.195,-18.83 -34.188,-31.98 -7.047,-13.15 -10.519,-27.02 -10.519,-41.64 0,-19.271 4.765,-34.291 14.293,-45.01 9.57,-10.691 21.281,-18.73 35.23,-24.082 13.891,-5.367 27.391,-9.808 40.434,-13.308 7.793,-2.129 16.137,-5.008 25.019,-8.61 8.836,-3.609 16.422,-8.48 22.774,-14.609 6.347,-6.129 9.476,-14.172 9.476,-24.109 0,-11.301 -4.906,-20.051 -14.738,-26.313 -9.82,-6.23 -24.019,-9.328 -42.531,-9.328 -21.777,0 -40.582,3.5 -56.367,10.519 -15.782,7 -26.793,13.231 -32.996,18.68 l -6.454,-50.832 c 6.797,-4.668 18.559,-10.019 35.235,-16.058 16.617,-6.051 37.613,-9.071 62.922,-9.071 29.222,0 51.758,4.481 67.539,13.442 15.781,8.961 26.644,20.031 32.699,33.168 6.057,13.152 9.077,26.062 9.077,38.711 0,15.019 -2.87,27.511 -8.632,37.539 -5.754,10.05 -13,18.16 -21.777,24.41"
         style="fill:#040606;fill-opacity:1;fill-rule:nonzero;stroke:none"
         id="path58" /><path
         d="m 1175.58,1028.59 c 12.56,11.59 30.52,17.39 53.89,17.39 15.97,0 29.13,-2.67 39.46,-8.03 10.31,-5.36 18,-13 23.07,-22.93 5.06,-9.95 7.59,-21.629 7.59,-35.079 h -150.75 c 5.25,20.839 14.13,37.069 26.74,48.649 z m 124.9,-226.43 c 15.98,4.969 29.48,9.879 40.59,14.738 l -6.99,41.512 c -12.86,-5.859 -26.51,-10.148 -40.89,-12.847 -14.44,-2.762 -28.29,-4.102 -41.54,-4.102 -18.11,0 -34.84,3 -50.22,9.059 -15.38,6.031 -28.18,16.449 -38.31,31.261 -10.12,14.789 -16.42,35.43 -18.96,61.93 h 207.44 c 0.99,5.07 1.63,9.969 1.88,14.769 0.29,4.758 0.44,9.2 0.44,13.29 0,25.71 -5.3,47.56 -15.93,65.58 -10.61,18.03 -25.2,31.76 -43.81,41.22 -18.61,9.45 -39.8,14.16 -63.52,14.16 -29.63,0 -54.88,-6.68 -75.83,-20.03 -20.94,-13.31 -36.91,-31.1 -47.93,-53.31 -11.01,-22.21 -16.52,-46.652 -16.52,-73.351 0,-27.437 5.9,-52.617 17.71,-75.527 11.76,-22.86 29.13,-41.223 52.15,-55.051 22.98,-13.852 51.31,-20.762 85.01,-20.762 20.85,0 39.25,2.5 55.23,7.461"
         style="fill:#040606;fill-opacity:1;fill-rule:nonzero;stroke:none"
         id="path60" /><path
         d="m 1442.16,941.969 c 0,-27.289 5.6,-52.071 16.81,-74.348 11.22,-22.312 27.75,-40.051 49.69,-53.199 21.88,-13.152 49.02,-19.723 81.37,-19.723 16.72,0 32.61,2.25 47.6,6.723 15.02,4.488 26.39,9.449 34.19,14.91 l -7.01,42.078 c -11.11,-5.461 -22.72,-9.75 -34.93,-12.847 -12.16,-3.133 -24.86,-4.692 -38.11,-4.692 -32.35,0 -56.37,9.449 -72.16,28.328 -15.78,18.91 -23.66,43.949 -23.66,75.114 0,31.929 8.28,56.867 24.81,74.777 16.57,17.93 40.64,26.89 72.2,26.89 12.85,0 25.26,-1.46 37.22,-4.38 12.01,-2.94 23.32,-6.93 34.04,-11.99 l 8.19,46.17 c -10.52,5.26 -22.44,9.41 -35.78,12.42 -13.35,3.01 -27.54,4.53 -42.53,4.53 -34.89,0 -63.52,-6.62 -85.89,-19.88 -22.38,-13.24 -39.01,-31.25 -49.83,-54.04 -10.82,-22.79 -16.22,-48.4 -16.22,-76.841"
         style="fill:#040606;fill-opacity:1;fill-rule:nonzero;stroke:none"
         id="path62" /><path
         d="m 1961.66,868.48 c -15.18,-18.011 -37.01,-27.019 -65.45,-27.019 -28.24,0 -50.03,9.008 -65.3,27.019 -15.29,18.02 -22.94,43.102 -22.94,75.231 0,32.16 7.65,57.219 22.94,75.249 15.27,18.02 37.06,27.02 65.3,27.02 28.44,0 50.27,-9 65.45,-27.02 15.19,-18.03 22.78,-43.089 22.78,-75.249 0,-32.129 -7.59,-57.211 -22.78,-75.231 z m 11.12,204.22 c -21.24,13.35 -46.75,20.03 -76.57,20.03 -29.97,0 -55.57,-6.68 -76.67,-20.03 -21.14,-13.31 -37.32,-31.25 -48.53,-53.74 -11.22,-22.491 -16.78,-47.589 -16.78,-75.249 0,-27.672 5.56,-52.719 16.78,-75.231 11.21,-22.5 27.39,-40.41 48.53,-53.769 21.1,-13.34 46.7,-20.012 76.67,-20.012 29.82,0 55.33,6.672 76.57,20.012 21.24,13.359 37.41,31.269 48.63,53.769 11.21,22.512 16.82,47.559 16.82,75.231 0,27.66 -5.61,52.758 -16.82,75.249 -11.22,22.49 -27.39,40.43 -48.63,53.74"
         style="fill:#040606;fill-opacity:1;fill-rule:nonzero;stroke:none"
         id="path64" /><path
         d="m 2402.27,800.551 v 157.781 c 0,41.277 -9.03,74.008 -27.05,98.168 -18.01,24.14 -47.94,36.23 -89.82,36.23 -17.51,0 -35.53,-3.32 -53.89,-9.93 -13.37,-4.81 -26.98,-13.65 -40.83,-26.27 l -5.81,30.34 h -40.89 V 800.551 h 52.6 v 205.459 c 5.87,11.41 13.6,21.13 25.26,27.27 16.08,8.46 33.74,12.7 53.04,12.7 27.25,0 46.56,-7.02 57.87,-21.03 11.26,-14.02 16.92,-36.231 16.92,-66.618 V 800.551 h 52.6"
         style="fill:#040606;fill-opacity:1;fill-rule:nonzero;stroke:none"
         id="path66" /><path
         d="m 2716.23,884.262 c -8.48,-14.91 -19.2,-25.75 -32.15,-32.571 -12.96,-6.832 -26.06,-10.23 -39.3,-10.23 -17.92,0 -33.3,4.617 -46.15,13.879 -12.86,9.25 -22.73,21.558 -29.53,36.961 -6.8,15.379 -10.22,32.328 -10.22,50.84 0,19.679 3.42,37.238 10.22,52.73 6.8,15.479 16.67,27.709 29.53,36.669 12.85,8.95 28.23,13.44 46.15,13.44 13.24,0 26.34,-3.84 39.3,-11.53 12.95,-7.72 23.67,-19.2 32.15,-34.489 8.44,-15.281 12.71,-34.242 12.71,-56.82 0,-24.36 -4.27,-43.993 -12.71,-58.879 z m 12.71,-83.711 h 46.74 v 438.269 h -52.6 v -185.48 c -9.27,11.43 -19.61,21.1 -32.3,26.99 -17.81,8.26 -36.27,12.4 -55.33,12.4 -26.7,0 -49.78,-6.97 -69.28,-20.89 -19.45,-13.92 -34.54,-32.28 -45.15,-55.09 -10.62,-22.77 -15.89,-47.301 -15.89,-73.609 0,-27.672 5.76,-52.7 17.38,-75.102 11.56,-22.41 27.19,-40.23 46.89,-53.469 19.65,-13.25 41.68,-19.871 66.05,-19.871 20.44,0 39.59,4.832 57.56,14.461 12.64,6.809 22.04,16.75 29.92,28.18 l 6.01,-36.789"
         style="fill:#040606;fill-opacity:1;fill-rule:nonzero;stroke:none"
         id="path68" /><path
         d="m 3047.37,875.352 c -8.38,-11.68 -19.11,-21.039 -32.26,-28.063 -13.14,-6.988 -26.74,-10.519 -40.79,-10.519 -13.05,0 -23.71,3.48 -31.95,10.371 -8.29,6.929 -12.46,18.07 -12.46,33.468 0,14.219 4.02,25.801 12.01,34.77 7.99,8.961 20.59,15.68 37.81,20.172 17.28,4.469 39.8,7.187 67.64,8.16 z m 82.42,-80.653 8.19,42.071 h -5.25 c -10.18,0 -17.53,2.218 -22.09,6.57 -4.56,4.398 -7.49,11.031 -8.79,19.879 -1.24,8.863 -1.88,20.101 -1.88,33.742 v 58.437 c 0,34.481 -3.42,61.762 -10.22,81.832 -6.8,20.04 -17.62,34.31 -32.46,42.8 -14.78,8.46 -34.23,12.7 -58.4,12.7 -18.91,0 -36.92,-2.78 -54.04,-8.33 -17.17,-5.53 -31.46,-12.71 -42.97,-21.46 l 7.59,-42.66 c 15.18,10.5 28.88,17.41 41.04,20.75 12.2,3.29 23.62,4.95 34.34,4.95 20.25,0 35.72,-4.19 46.45,-12.57 10.71,-8.37 16.07,-26.21 16.07,-53.469 -14.58,-0.179 -29.83,-1.312 -45.7,-3.351 -15.88,-2.039 -31.22,-5.36 -46.05,-9.93 -14.79,-4.59 -28.19,-10.711 -40.15,-18.398 -12.01,-7.692 -21.53,-17.352 -28.63,-28.942 -7.15,-11.582 -10.67,-25.468 -10.67,-41.629 0,-15.992 3.62,-30.191 10.97,-42.652 7.29,-12.488 17.56,-22.309 30.81,-29.527 13.26,-7.192 28.73,-10.813 46.45,-10.813 18.51,0 35.08,3.922 49.67,11.703 14.59,7.77 27.3,17.911 37.97,30.368 3.91,-8.961 8.29,-16.54 13.15,-22.77 4.86,-6.262 11.95,-11.02 21.19,-14.32 9.27,-3.328 22.37,-4.981 39.3,-4.981 h 4.11"
         style="fill:#040606;fill-opacity:1;fill-rule:nonzero;stroke:none"
         id="path70" /><path
         d="m 3321.29,1079.73 c -13.3,-8.66 -27.29,-22.05 -41.88,-40.17 l -6.45,47.31 h -43.23 V 800.551 h 56.08 v 202.189 c 5.26,7.99 14.29,15.33 27.04,22.06 12.76,6.72 26.7,10.07 41.93,10.07 3.48,0 6.65,-0.15 9.48,-0.42 2.83,-0.29 5.52,-0.74 8.05,-1.32 l 5.25,57.84 c -4.12,1.16 -8.59,1.76 -13.45,1.76 -15.18,0 -29.47,-4.34 -42.82,-13"
         style="fill:#040606;fill-opacity:1;fill-rule:nonzero;stroke:none"
         id="path72" /><path
         d="m 3487.38,659.121 h 58.46 l 175.32,427.749 h -58.46 l -80.64,-212.679 -89.42,212.679 h -58.41 l 119.2,-273.468 -66.05,-154.281"
         style="fill:#040606;fill-opacity:1;fill-rule:nonzero;stroke:none"
         id="path74" /><path
         d="M 102.699,288.289 C 89.4023,279.629 75.4102,266.23 60.8203,248.121 L 54.3789,295.43 H 11.1484 V 9.10156 H 67.2266 V 211.301 c 5.2617,7.988 14.2929,15.34 27.039,22.058 12.7544,6.723 26.7034,10.071 41.9334,10.071 3.473,0 6.649,-0.149 9.477,-0.43 2.832,-0.289 5.512,-0.738 8.047,-1.309 l 5.25,57.84 c -4.114,1.16 -8.586,1.758 -13.446,1.758 -15.183,0 -29.476,-4.34 -42.828,-13"
         style="fill:#040606;fill-opacity:1;fill-rule:nonzero;stroke:none"
         id="path76" /><path
         d="M 392.707,83.9102 C 384.316,72.2305 373.602,62.8789 360.445,55.8516 347.301,48.8594 333.695,45.332 319.656,45.332 c -13.054,0 -23.715,3.4688 -31.957,10.3672 -8.285,6.9297 -12.457,18.0703 -12.457,33.4727 0,14.2191 4.024,25.8081 12.012,34.7691 7.988,8.957 20.598,15.68 37.812,20.168 17.27,4.469 39.801,7.192 67.641,8.161 z m 63.266,-32 c -4.563,4.3906 -7.496,11.0195 -8.782,19.8711 -1.246,8.8671 -1.89,20.0976 -1.89,33.7387 v 58.441 c 0,34.48 -3.414,61.75 -10.223,81.828 -6.797,20.043 -17.613,34.313 -32.445,42.801 -14.797,8.449 -34.246,12.699 -58.414,12.699 -18.903,0 -36.918,-2.777 -54.039,-8.328 -17.172,-5.539 -31.461,-12.711 -42.969,-21.461 l 7.586,-42.66 c 15.187,10.5 28.883,17.422 41.043,20.742 12.207,3.297 23.621,4.969 34.336,4.969 20.25,0 35.734,-4.199 46.453,-12.59 10.715,-8.359 16.078,-26.199 16.078,-53.461 -14.59,-0.18 -29.832,-1.32 -45.707,-3.348 -15.875,-2.031 -31.219,-5.363 -46.051,-9.933 -14.785,-4.59 -28.183,-10.707 -40.144,-18.406 -12.012,-7.692 -21.535,-17.344 -28.633,-28.934 -7.149,-11.578 -10.668,-25.481 -10.668,-41.629 0,-15.9805 3.621,-30.1992 10.969,-42.6484 7.289,-12.4922 17.558,-22.3125 30.816,-29.5196 13.25,-7.20309 28.734,-10.82028 46.441,-10.82028 18.508,0 35.083,3.91797 49.68,11.70708 14.582,7.7617 27.289,17.9101 37.961,30.3632 3.922,-8.9609 8.285,-16.5429 13.149,-22.7734 4.859,-6.25 11.96,-11.0195 21.191,-14.32032 9.281,-3.32812 22.371,-4.97656 39.297,-4.97656 h 4.117 l 8.191,42.07028 h -5.257 c -10.176,0 -17.516,2.2071 -22.086,6.5782"
         style="fill:#040606;fill-opacity:1;fill-rule:nonzero;stroke:none"
         id="path78" /><path
         d="M 832.168,66.9688 770.828,286.672 H 716.445 L 655.703,66.9688 600.77,295.43 H 538.848 L 624.746,9.10156 h 59 L 743.941,220.648 803.539,9.10156 h 59 L 949.035,295.43 H 887.102 L 832.168,66.9688"
         style="fill:#040606;fill-opacity:1;fill-rule:nonzero;stroke:none"
         id="path80" /><path
         d="m 1620.18,287.992 c -16.37,8.86 -36.51,13.297 -60.48,13.297 -30.03,0 -53.85,-6.418 -71.62,-19.269 -13.95,-10.129 -24.24,-24.028 -32.51,-39.981 -5,11.102 -10.55,21.043 -17.3,28.43 -10.43,11.402 -22.08,19.39 -35.03,23.953 -12.96,4.59 -26.46,6.867 -40.5,6.867 -18.66,0 -36.52,-3.738 -53.44,-11.238 -12.13,-5.371 -24.51,-13.871 -37.11,-25.25 l -5.87,30.629 h -40.89 V 9.10156 h 52.61 V 214.691 c 5.79,11.348 13.25,21.02 24.26,27.149 15.18,8.461 32.4,12.711 51.71,12.711 13.24,0 24.91,-2.442 35.03,-7.321 10.13,-4.871 18.01,-13.628 23.67,-26.281 5.65,-12.668 8.49,-30.687 8.49,-54.07 V 9.10156 h 52.6 V 175.07 c 0,7.993 0.84,16.559 2.48,25.711 1.64,9.149 5.06,17.809 10.22,26.008 5.16,8.18 12.8,14.859 22.92,20.012 10.13,5.16 23.58,7.75 40.35,7.75 23.77,0 40.89,-6.141 51.41,-18.422 10.52,-12.277 15.78,-31.859 15.78,-58.731 V 9.10156 h 52.61 V 178 c 0,28.039 -4.18,51.172 -12.42,69.379 -8.28,18.211 -20.59,31.75 -36.97,40.613"
         style="fill:#040606;fill-opacity:1;fill-rule:nonzero;stroke:none"
         id="path82" /><path
         d="m 1938.97,83.9102 c -8.39,-11.6797 -19.15,-21.0313 -32.31,-28.0586 -13.16,-6.9922 -26.75,-10.5196 -40.74,-10.5196 -13.05,0 -23.72,3.4688 -32,10.3672 -8.29,6.9297 -12.41,18.0703 -12.41,33.4727 0,14.2191 3.97,25.8081 11.96,34.7691 7.99,8.957 20.59,15.68 37.86,20.168 17.22,4.469 39.74,7.192 67.64,8.161 z m 63.22,-32 c -4.57,4.3906 -7.5,11.0195 -8.74,19.8711 -1.29,8.8671 -1.89,20.0976 -1.89,33.7387 v 58.441 c 0,34.48 -3.42,61.75 -10.22,81.828 -6.84,20.043 -17.66,34.313 -32.46,42.801 -14.78,8.449 -34.28,12.699 -58.45,12.699 -18.85,0 -36.91,-2.777 -54.04,-8.328 -17.12,-5.539 -31.46,-12.711 -42.92,-21.461 l 7.59,-42.66 c 15.18,10.5 28.88,17.422 41.04,20.742 12.16,3.297 23.62,4.969 34.34,4.969 20.25,0 35.72,-4.199 46.45,-12.59 10.72,-8.359 16.08,-26.199 16.08,-53.461 -14.65,-0.18 -29.88,-1.32 -45.75,-3.348 -15.89,-2.031 -31.22,-5.363 -46.01,-9.933 -14.78,-4.59 -28.18,-10.707 -40.19,-18.406 -11.97,-7.692 -21.49,-17.344 -28.63,-28.934 -7.1,-11.578 -10.67,-25.481 -10.67,-41.629 0,-15.9805 3.67,-30.1992 10.97,-42.6484 7.29,-12.4922 17.56,-22.3125 30.8,-29.5196 13.25,-7.20309 28.74,-10.82028 46.5,-10.82028 18.46,0 35.04,3.91797 49.67,11.70708 14.59,7.7617 27.25,17.9101 37.97,30.3632 3.88,-8.9609 8.29,-16.5429 13.15,-22.7734 4.86,-6.25 11.91,-11.0195 21.19,-14.32032 9.23,-3.32812 22.33,-4.97656 39.3,-4.97656 h 4.07 l 8.19,42.07028 h -5.27 c -10.12,0 -17.46,2.2071 -22.07,6.5782"
         style="fill:#040606;fill-opacity:1;fill-rule:nonzero;stroke:none"
         id="path84" /><path
         d="m 2191.95,371.41 -52.61,-5.262 V 295.43 h -44.41 l -4.66,-40.879 h 49.07 V 71.6289 c 0,-11.4883 2.49,-22.4492 7.5,-32.8672 4.96,-10.4219 12.9,-18.9336 23.77,-25.5625 10.91,-6.61717 25.45,-9.93748 43.57,-9.93748 h 47.34 l 4.07,42.07028 h -13.45 c -18.91,0 -32.56,1.0703 -41.04,3.2266 -8.48,2.1328 -13.8,7.293 -15.93,15.4922 -2.13,8.1797 -3.22,21.3984 -3.22,39.7112 v 150.789 h 75.38 v 40.879 h -75.38 v 75.98"
         style="fill:#040606;fill-opacity:1;fill-rule:nonzero;stroke:none"
         id="path86" /><path
         d="m 2402.35,188.5 c 5.26,20.84 14.14,37.07 26.74,48.66 12.56,11.582 30.52,17.391 53.9,17.391 15.97,0 29.12,-2.68 39.45,-8.039 10.31,-5.371 18,-13 23.07,-22.934 5.06,-9.949 7.6,-21.637 7.6,-35.078 z m 145.35,98.621 c -18.62,9.461 -39.81,14.168 -63.52,14.168 -29.63,0 -54.89,-6.68 -75.83,-20.019 -20.94,-13.329 -36.91,-31.11 -47.94,-53.321 -11.01,-22.211 -16.51,-46.648 -16.51,-73.34 0,-27.449 5.9,-52.629 17.71,-75.527 11.75,-22.8828 29.13,-41.2422 52.15,-55.0625 22.98,-13.8476 51.31,-20.75778 85.01,-20.75778 20.84,0 39.25,2.5 55.23,7.45708 15.98,4.9726 29.48,9.871 40.58,14.7421 l -6.99,41.5079 c -12.85,-5.8594 -26.5,-10.1485 -40.89,-12.8477 -14.44,-2.7617 -28.29,-4.1016 -41.53,-4.1016 -18.11,0 -34.84,3.0118 -50.22,9.0625 -15.39,6.0274 -28.19,16.4375 -38.31,31.2696 -10.12,14.7774 -16.42,35.4184 -18.96,61.9184 h 207.43 c 0.99,5.058 1.63,9.972 1.89,14.761 0.29,4.77 0.44,9.211 0.44,13.309 0,25.699 -5.3,47.558 -15.93,65.57 -10.62,18.039 -25.2,31.762 -43.81,41.211"
         style="fill:#040606;fill-opacity:1;fill-rule:nonzero;stroke:none"
         id="path88" /><path
         d="m 2803.66,288.289 c -13.36,-8.66 -27.35,-22.059 -41.94,-40.168 l -6.41,47.309 h -43.26 V 9.10156 h 56.12 V 211.301 c 5.26,7.988 14.24,15.34 26.99,22.058 12.76,6.723 26.75,10.071 41.94,10.071 3.52,0 6.69,-0.149 9.52,-0.43 2.79,-0.289 5.47,-0.738 7.99,-1.309 l 5.26,57.84 c -4.07,1.16 -8.53,1.758 -13.4,1.758 -15.23,0 -29.47,-4.34 -42.81,-13"
         style="fill:#040606;fill-opacity:1;fill-rule:nonzero;stroke:none"
         id="path90" /><path
         d="m 2948.1,359.719 h 52.6 v 58.441 h -52.6 v -58.441"
         style="fill:#040606;fill-opacity:1;fill-rule:nonzero;stroke:none"
         id="path92" /><path
         d="m 2948.1,9.10156 h 52.6 V 295.43 h -52.6 V 9.10156"
         style="fill:#040606;fill-opacity:1;fill-rule:nonzero;stroke:none"
         id="path94" /><path
         d="m 3273.04,83.9102 c -8.39,-11.6797 -19.16,-21.0313 -32.31,-28.0586 -13.14,-6.9922 -26.75,-10.5196 -40.74,-10.5196 -13.05,0 -23.71,3.4688 -32.01,10.3672 -8.29,6.9297 -12.4,18.0703 -12.4,33.4727 0,14.2191 3.96,25.8081 11.96,34.7691 7.99,8.957 20.59,15.68 37.86,20.168 17.22,4.469 39.75,7.192 67.64,8.161 z m 63.22,-32 c -4.56,4.3906 -7.5,11.0195 -8.73,19.8711 -1.3,8.8671 -1.89,20.0976 -1.89,33.7387 v 58.441 c 0,34.48 -3.42,61.75 -10.23,81.828 -6.84,20.043 -17.66,34.313 -32.44,42.801 -14.8,8.449 -34.3,12.699 -58.47,12.699 -18.85,0 -36.91,-2.777 -54.03,-8.328 -17.13,-5.539 -31.46,-12.711 -42.93,-21.461 l 7.59,-42.66 c 15.19,10.5 28.88,17.422 41.04,20.742 12.16,3.297 23.62,4.969 34.34,4.969 20.25,0 35.73,-4.199 46.45,-12.59 10.72,-8.359 16.08,-26.199 16.08,-53.461 -14.64,-0.18 -29.88,-1.32 -45.75,-3.348 -15.89,-2.031 -31.22,-5.363 -46.01,-9.933 -14.78,-4.59 -28.18,-10.707 -40.19,-18.406 -11.95,-7.692 -21.49,-17.344 -28.64,-28.934 -7.09,-11.578 -10.66,-25.481 -10.66,-41.629 0,-15.9805 3.67,-30.1992 10.96,-42.6484 7.3,-12.4922 17.57,-22.3125 30.82,-29.5196 13.26,-7.20309 28.73,-10.82028 46.49,-10.82028 18.47,0 35.04,3.91797 49.69,11.70708 14.58,7.7617 27.24,17.9101 37.96,30.3632 3.86,-8.9609 8.28,-16.5429 13.14,-22.7734 4.87,-6.25 11.91,-11.0195 21.19,-14.32032 9.23,-3.32812 22.33,-4.97656 39.3,-4.97656 h 4.07 l 8.19,42.07028 h -5.26 c -10.13,0 -17.46,2.2071 -22.08,6.5782"
         style="fill:#040606;fill-opacity:1;fill-rule:nonzero;stroke:none"
         id="path96" /><path
         d="m 3510.54,65.8086 c -2.14,8.1523 -3.18,20.4414 -3.18,36.7934 v 344.777 h -52.6 V 72.2305 c 0,-11.5117 2.33,-22.5 7,-33.0313 4.66,-10.5195 12.4,-19.1289 23.22,-25.8476 10.82,-6.72269 25.45,-10.08988 43.96,-10.08988 h 16.98 l 7.59,42.07028 c -13.45,0 -23.42,1.3672 -29.98,4.0977 -6.5,2.7305 -10.82,8.1797 -12.99,16.3789"
         style="fill:#040606;fill-opacity:1;fill-rule:nonzero;stroke:none"
         id="path98" /><path
         d="m 3804.8,150.531 c -8.78,6.231 -17.81,11.188 -27.05,14.891 -9.23,3.699 -17.36,6.527 -24.41,8.488 -22.37,6.801 -39.11,13.039 -50.06,18.68 -11.02,5.66 -16.53,15.211 -16.53,28.64 0,13.442 5.16,23.25 15.48,29.372 10.32,6.128 23.67,9.199 40.05,9.199 16.12,0 29.77,-2.43 40.89,-7.321 11.12,-4.859 20.84,-10.789 29.23,-17.808 l 6.39,47.91 c -8.73,4.488 -19.1,8.738 -31.11,12.727 -11.96,3.972 -27.49,5.98 -46.59,5.98 -26.11,0 -47.05,-4.098 -62.83,-12.277 -15.77,-8.172 -27.14,-18.84 -34.19,-31.981 -6.99,-13.152 -10.52,-27.019 -10.52,-41.64 0,-19.27 4.77,-34.282 14.35,-45.012 9.52,-10.688 21.28,-18.731 35.18,-24.078 13.94,-5.371 27.44,-9.813 40.48,-13.309 7.8,-2.133 16.14,-5.012 24.97,-8.601 8.89,-3.629 16.47,-8.489 22.82,-14.621 6.31,-6.129 9.48,-14.1684 9.48,-24.1216 0,-11.289 -4.9,-20.0468 -14.74,-26.2968 -9.87,-6.2305 -24.02,-9.3321 -42.53,-9.3321 -21.82,0 -40.63,3.5 -56.42,10.5196 -15.72,7 -26.74,13.2304 -33,18.6914 l -6.39,-50.8399 c 6.79,-4.6718 18.51,-10.0312 35.18,-16.0625 16.67,-6.04685 37.66,-9.06638 62.97,-9.06638 29.23,0 51.7,4.47656 67.49,13.43748 15.78,8.961 26.7,20.0196 32.75,33.1719 6,13.1602 9.03,26.0586 9.03,38.707 0,15.0119 -2.88,27.5239 -8.63,37.5429 -5.71,10.051 -13.01,18.16 -21.74,24.41"
         style="fill:#040606;fill-opacity:1;fill-rule:nonzero;stroke:none"
         id="path100" /><path
         d="m 7773.78,3820.57 c -57.76,-60.1 -160.23,-90.14 -307.42,-90.14 h -262.7 v 631.63 h 276.67 c 139.74,0 238.02,-27.74 294.84,-83.17 56.82,-55.43 85.25,-132.05 85.25,-229.86 0,-92.22 -28.88,-168.39 -86.64,-228.46 z m 369.62,-93.64 c 61.01,84.31 91.53,198.19 91.53,341.66 0,134.15 -27.94,245.01 -83.86,332.57 -55.88,87.56 -134.38,152.79 -235.47,195.64 -101.08,42.85 -219.13,64.29 -354.21,64.29 H 6845.92 V 2704.74 h 357.74 v 726.63 h 349.35 c 2.77,0 5.11,0 6.99,0 1.84,0 4.17,0 6.97,0 l 377.32,-726.63 h 399.64 l -441.58,821.66 c 99.67,49.38 180.04,116.22 241.05,200.53"
         style="fill:#040606;fill-opacity:1;fill-rule:nonzero;stroke:none"
         id="path102" /><path
         d="m 9269,3042.9 c -36.34,-34.47 -77.33,-59.87 -122.96,-76.15 -45.68,-16.3 -83.84,-24.46 -114.61,-24.46 -65.2,0 -112.72,13.74 -142.52,41.23 -29.82,27.47 -44.71,69.62 -44.71,126.47 0,54.96 21.89,100.61 65.66,136.93 43.79,36.33 98.3,63.82 163.5,82.45 65.21,18.64 130.41,29.35 195.64,32.13 z m 392.67,-68.46 c -17.71,8.39 -29.82,28.16 -36.35,59.38 -6.5,31.21 -9.77,81.75 -9.77,151.62 v 377.29 c 0,135.07 -20.5,243.84 -61.48,326.29 -40.99,82.45 -99.2,142.3 -174.68,179.57 -75.45,37.26 -165.37,55.9 -269.7,55.9 -86.64,0 -172.09,-10.25 -256.41,-30.75 -84.33,-20.49 -168.39,-51.23 -252.23,-92.22 l 30.74,-282.28 c 74.51,36.35 141.35,63.12 200.53,80.36 59.15,17.22 119.94,25.86 182.34,25.86 89.45,0 152.79,-18.19 190.06,-54.51 37.26,-36.33 57.76,-94.56 61.48,-174.68 -52.18,-1.88 -112.5,-7.91 -180.95,-18.16 -68.48,-10.27 -137.88,-26.33 -208.22,-48.21 -70.34,-21.91 -135.55,-51.71 -195.64,-89.45 -60.09,-37.71 -108.53,-84.78 -145.32,-141.12 -36.8,-56.38 -55.21,-124.16 -55.21,-203.31 0,-88.53 18.16,-163.98 54.51,-226.38 36.33,-62.43 85.23,-110.19 146.71,-143.24 61.49,-33.05 129.5,-49.6 204.03,-49.6 83.84,0 164.68,14.19 242.46,42.6 77.78,28.41 139.49,68.23 185.15,119.5 17.69,-32.63 40.98,-61.04 69.86,-85.26 28.86,-24.24 63.6,-43.09 104.11,-56.59 40.52,-13.5 86.87,-20.25 139.05,-20.25 h 125.77 l 30.72,285.06 h -44.71 c -33.53,0 -59.16,4.2 -76.85,12.58"
         style="fill:#040606;fill-opacity:1;fill-rule:nonzero;stroke:none"
         id="path104" /><path
         d="m 12049.8,2704.74 -271.1,1956.35 h -293.4 l -475.1,-891.53 -478,891.53 h -293.4 L 9967.68,2704.74 h 371.72 l 167.1,1309.23 503.7,-898.4 500.9,900.27 167,-1311.1 h 371.7"
         style="fill:#040606;fill-opacity:1;fill-rule:nonzero;stroke:none"
         id="path106" /><path
         d="M 12947.9,7000 H 5947.87 V 0 H 12947.9 V 7000 Z M 12770,6822.15 V 177.852 H 6125.72 V 6822.15 H 12770"
         style="fill:#040606;fill-opacity:1;fill-rule:nonzero;stroke:none"
         id="path108" /><path
         d="m 0,2704.74 h 357.711 v 846.82 H 1011.69 V 3898.1 H 357.711 v 416.44 h 846.819 v 346.55 H 0 V 2704.74"
         style="fill:#040606;fill-opacity:1;fill-rule:nonzero;stroke:none"
         id="path110" /><path
         d="m 2258.16,3086.85 c -20.7,-24.46 -43.19,-45.79 -67.76,-63.5 -51.71,-37.27 -116.69,-55.91 -194.95,-55.91 -97.83,0 -168.39,31.44 -211.72,94.34 -43.32,62.87 -64.95,159.07 -64.95,288.56 v 751.79 h -346.57 v -751.79 c 0,-131.35 19.08,-247.57 57.29,-348.66 38.18,-101.08 100.61,-180.5 187.25,-238.26 86.64,-57.76 202.64,-86.62 347.96,-86.62 71.73,0 143.68,18.16 215.89,54.49 36.26,18.24 67.63,37.31 94.14,57.2 l 5.77,-83.75 H 2604.7 V 4102.13 H 2258.16 V 3086.85"
         style="fill:#040606;fill-opacity:1;fill-rule:nonzero;stroke:none"
         id="path112" /><path
         d="m 3412.37,4445.9 -346.57,-36.35 v -307.42 h -167.68 l -30.74,-285.06 H 3065.8 V 3042.9 c 0,-60.57 13.05,-118.78 39.13,-174.68 26.08,-55.87 66.59,-101.77 121.58,-137.63 54.95,-35.85 126.24,-53.79 213.8,-53.79 h 248.74 l 30.74,285.06 h -95.03 c -65.21,0 -112.72,3.95 -142.52,11.89 -29.82,7.89 -48.9,27.46 -57.29,58.68 -8.39,31.21 -12.58,82.2 -12.58,153.01 v 631.63 h 307.42 v 285.06 h -307.42 v 343.77"
         style="fill:#040606;fill-opacity:1;fill-rule:nonzero;stroke:none"
         id="path114" /><path
         d="M 4874.02,4102.13 V 3086.85 c -20.69,-24.46 -43.18,-45.79 -67.76,-63.5 -51.7,-37.27 -116.68,-55.91 -194.94,-55.91 -97.83,0 -168.4,31.44 -211.72,94.34 -43.32,62.87 -64.96,159.07 -64.96,288.56 v 751.79 h -346.56 v -751.79 c 0,-131.35 19.08,-247.57 57.29,-348.66 38.18,-101.08 100.61,-180.5 187.25,-238.26 86.64,-57.76 202.64,-86.62 347.96,-86.62 71.73,0 143.68,18.16 215.88,54.49 36.27,18.24 67.63,37.31 94.15,57.2 l 5.77,-83.75 h 324.19 v 1397.39 h -346.55"
         style="fill:#040606;fill-opacity:1;fill-rule:nonzero;stroke:none"
         id="path116" /></g></g></svg>
